{"title":"Un.Amour.de.Jeunesse.[Goodbye.First.Love].2011.DVDRip.AC3.HORiZO","uid":7651382,"size":1573343326,"categoryP":"video","categoryS":"movies","magnet":"?xt=urn:btih:eaa8c7bcbd37487b5c27cf5255fda5846ed42d49&amp;dn=Un.Amour.de.Jeunesse.%5BGoodbye.First.Love%5D.2011.DVDRip.AC3.HORiZO&amp;tr=udp%3A%2F%2Ftracker.openbittorrent.com%3A80&amp;tr=udp%3A%2F%2Fopen.demonii.com%3A1337&amp;tr=udp%3A%2F%2Ftracker.coppersurfer.tk%3A6969&amp;tr=udp%3A%2F%2Fexodus.desync.com%3A6969","seeders":1,"leechers":0,"uploader":"artsubs","files":-1,"time":1348033214,"description":"Title: Un Amour de Jeunesse aka Goodbye First Love\nYear: 2011 \nCountry: France / Germany\nLanguage: French / German / Danish\nGenre: Drama / Romance\nRuntime: 110 min\nSource: DVDRIP\nSize: 1,46 GB\nDirected by: Mia Hansen-Love\nStarring:\nLola Creton  ...  Camille\nSebastian Urzendowsky  ...  Sullivan\nMagne-Havard Brekke  ...  Lorenz\nValerie Bonneton  ...  Camille's mother\nSerge Renko  ...  Camille's father\nOzay Fecht  ...  Sullivan's mother\nMax Ricat  ...  Sullivan's brother\n\nIMDB Link: http://www.imdb.com/title/tt1618447/                   \n\n\nPlot: A chronicle of the romance between Camille and Sullivan, which begins during their adolescence and picks up after Sullivan's 8-year absence from exploring the world. [IMDB]\n\n\nTHIS TORRENT HAS SOFT SUBTITLES IN ENGLISH AND BRAZILIAN PORTUGUESE.\n\n\nGeneral\nComplete name                    : Un.Amour.de.Jeunesse.2011.DVDRip.AC3.HORiZON-ArtSubs\nFormat                           : AVI\nFormat/Info                      : Audio Video Interleave\nFile size                        : 1.46 GiB\nDuration                         : 1h 50mn\nOverall bit rate                 : 1 898 Kbps\nWriting application              : FairUse Wizard - http://fairusewizard.com\nWriting library                  : The best and REALLY easy backup tool\n\nVideo\nID                               : 0\nFormat                           : MPEG-4 Visual\nFormat profile                   : Advanced Simple@L5\nFormat settings, BVOP            : Yes\nFormat settings, QPel            : No\nFormat settings, GMC             : No warppoints\nFormat settings, Matrix          : Default (H.263)\nMuxing mode                      : Packed bitstream\nCodec ID                         : XVID\nCodec ID/Hint                    : XviD\nDuration                         : 1h 50mn\nBit rate                         : 1 697 Kbps\nWidth                            : 672 pixels\nHeight                           : 368 pixels\nDisplay aspect ratio             : 16:9\nFrame rate                       : 23.976 fps\nColor space                      : YUV\nChroma subsampling               : 4:2:0\nBit depth                        : 8 bits\nScan type                        : Progressive\nCompression mode                 : Lossy\nBits/(Pixel*Frame)               : 0.286\nStream size                      : 1.31 GiB (89%)\nWriting library                  : XviD 1.1.0 (UTC 2005-11-22)\n\nAudio\nID                               : 1\nFormat                           : AC-3\nFormat/Info                      : Audio Coding 3\nMode extension                   : CM (complete main)\nCodec ID                         : 2000\nDuration                         : 1h 50mn\nBit rate mode                    : Constant\nBit rate                         : 192 Kbps\nChannel(s)                       : 2 channels\nChannel positions                : Front: L R\nSampling rate                    : 48.0 KHz\nBit depth                        : 16 bits\nCompression mode                 : Lossy\nStream size                      : 152 MiB (10%)\nAlignment                        : Split accross interleaves\nInterleave, duration             : 42 ms (1.00 video frame)\nInterleave, preload duration     : 500 ms\n","torrent":{"xt":"urn:btih:eaa8c7bcbd37487b5c27cf5255fda5846ed42d49","amp;dn":"Un.Amour.de.Jeunesse.%5BGoodbye.First.Love%5D.2011.DVDRip.AC3.HORiZO","amp;tr":["udp%3A%2F%2Ftracker.openbittorrent.com%3A80","udp%3A%2F%2Fopen.demonii.com%3A1337","udp%3A%2F%2Ftracker.coppersurfer.tk%3A6969","udp%3A%2F%2Fexodus.desync.com%3A6969"],"infoHash":"eaa8c7bcbd37487b5c27cf5255fda5846ed42d49","infoHashBuffer":{"type":"Buffer","data":[234,168,199,188,189,55,72,123,92,39,207,82,85,253,165,132,110,212,45,73]},"announce":[],"urlList":[]}}